<mxfile host="app.diagrams.net" modified="2024-01-26T17:53:43.036Z" agent="Mozilla/5.0 (Macintosh; Intel Mac OS X 10_15_7) AppleWebKit/537.36 (KHTML, like Gecko) Chrome/120.0.0.0 Safari/537.36" etag="07VcYnGWCGSPQzlsYb9J" version="22.1.19" type="github">
  <diagram name="Page-1" id="iysN_2LWHAl4f9Z4SGd8">
    <mxGraphModel dx="1356" dy="743" grid="1" gridSize="10" guides="1" tooltips="1" connect="1" arrows="1" fold="1" page="1" pageScale="1" pageWidth="850" pageHeight="1100" math="1" shadow="0">
      <root>
        <mxCell id="0" />
        <mxCell id="1" parent="0" />
        <mxCell id="shUx7FzOw33gI_u7dY2l-1" value="" style="rounded=1;whiteSpace=wrap;html=1;fontSize=16;" parent="1" vertex="1">
          <mxGeometry x="276" y="155" width="318" height="165" as="geometry" />
        </mxCell>
        <mxCell id="shUx7FzOw33gI_u7dY2l-2" value="Fuel Inlet: $$T_{f_{1}}$$" style="rounded=1;whiteSpace=wrap;html=1;fillColor=#e1d5e7;strokeColor=#9673a6;" parent="1" vertex="1">
          <mxGeometry x="300" y="170" width="110" height="60" as="geometry" />
        </mxCell>
        <mxCell id="shUx7FzOw33gI_u7dY2l-8" value="Graphite: $$T_g$$" style="rounded=1;whiteSpace=wrap;html=1;fillColor=#f5f5f5;strokeColor=#666666;fontColor=#333333;" parent="1" vertex="1">
          <mxGeometry x="385" y="245" width="100" height="60" as="geometry" />
        </mxCell>
        <mxCell id="shUx7FzOw33gI_u7dY2l-26" value="" style="endArrow=classic;html=1;rounded=1;entryX=0;entryY=0.5;entryDx=0;entryDy=0;curved=0;strokeColor=#000000;fillColor=#0050ef;" parent="1" target="shUx7FzOw33gI_u7dY2l-2" edge="1">
          <mxGeometry width="50" height="50" relative="1" as="geometry">
            <mxPoint x="240" y="180" as="sourcePoint" />
            <mxPoint x="410" y="190" as="targetPoint" />
            <Array as="points">
              <mxPoint x="240" y="200" />
            </Array>
          </mxGeometry>
        </mxCell>
        <mxCell id="shUx7FzOw33gI_u7dY2l-28" value="" style="endArrow=classic;html=1;rounded=1;exitX=1;exitY=0.5;exitDx=0;exitDy=0;curved=0;entryX=1;entryY=0.5;entryDx=0;entryDy=0;" parent="1" source="shUx7FzOw33gI_u7dY2l-32" target="OVqc9PXpgNsdq9rnyQdo-1" edge="1">
          <mxGeometry width="50" height="50" relative="1" as="geometry">
            <mxPoint x="570" y="195" as="sourcePoint" />
            <mxPoint x="640" y="180" as="targetPoint" />
            <Array as="points">
              <mxPoint x="630" y="200" />
              <mxPoint x="630" y="150" />
              <mxPoint x="630" y="100" />
            </Array>
          </mxGeometry>
        </mxCell>
        <mxCell id="shUx7FzOw33gI_u7dY2l-32" value="Fuel Outlet: $$T_{f_{2}}$$" style="rounded=1;whiteSpace=wrap;html=1;fillColor=#e1d5e7;strokeColor=#9673a6;" parent="1" vertex="1">
          <mxGeometry x="460" y="170" width="110" height="60" as="geometry" />
        </mxCell>
        <mxCell id="shUx7FzOw33gI_u7dY2l-33" value="" style="endArrow=classic;html=1;rounded=1;exitX=1;exitY=0.5;exitDx=0;exitDy=0;entryX=0;entryY=0.5;entryDx=0;entryDy=0;" parent="1" source="shUx7FzOw33gI_u7dY2l-2" target="shUx7FzOw33gI_u7dY2l-32" edge="1">
          <mxGeometry width="50" height="50" relative="1" as="geometry">
            <mxPoint x="410" y="300" as="sourcePoint" />
            <mxPoint x="460" y="250" as="targetPoint" />
          </mxGeometry>
        </mxCell>
        <mxCell id="shUx7FzOw33gI_u7dY2l-38" value="" style="endArrow=classic;startArrow=classic;html=1;rounded=1;exitX=0.5;exitY=1;exitDx=0;exitDy=0;entryX=0;entryY=0.25;entryDx=0;entryDy=0;curved=0;" parent="1" source="shUx7FzOw33gI_u7dY2l-2" target="shUx7FzOw33gI_u7dY2l-8" edge="1">
          <mxGeometry width="50" height="50" relative="1" as="geometry">
            <mxPoint x="410" y="300" as="sourcePoint" />
            <mxPoint x="460" y="250" as="targetPoint" />
            <Array as="points">
              <mxPoint x="355" y="260" />
            </Array>
          </mxGeometry>
        </mxCell>
        <mxCell id="shUx7FzOw33gI_u7dY2l-39" value="" style="endArrow=classic;startArrow=classic;html=1;rounded=1;exitX=1;exitY=0.25;exitDx=0;exitDy=0;entryX=0.5;entryY=1;entryDx=0;entryDy=0;curved=0;" parent="1" source="shUx7FzOw33gI_u7dY2l-8" target="shUx7FzOw33gI_u7dY2l-32" edge="1">
          <mxGeometry width="50" height="50" relative="1" as="geometry">
            <mxPoint x="410" y="300" as="sourcePoint" />
            <mxPoint x="460" y="250" as="targetPoint" />
            <Array as="points">
              <mxPoint x="515" y="260" />
            </Array>
          </mxGeometry>
        </mxCell>
        <mxCell id="shUx7FzOw33gI_u7dY2l-43" value="$$T_{f_{hx,out}}$$" style="text;html=1;strokeColor=none;fillColor=none;align=center;verticalAlign=middle;whiteSpace=wrap;rounded=1;" parent="1" vertex="1">
          <mxGeometry x="210" y="150" width="60" height="30" as="geometry" />
        </mxCell>
        <mxCell id="OVqc9PXpgNsdq9rnyQdo-1" value="Heat Exchanger" style="rounded=1;whiteSpace=wrap;html=1;" parent="1" vertex="1">
          <mxGeometry x="375" y="70" width="120" height="60" as="geometry" />
        </mxCell>
        <mxCell id="OVqc9PXpgNsdq9rnyQdo-3" value="Delay $$\tau_{hx \rightarrow c}$$" style="text;html=1;strokeColor=none;fillColor=none;align=center;verticalAlign=middle;whiteSpace=wrap;rounded=0;strokeWidth=1;fontSize=14;" parent="1" vertex="1">
          <mxGeometry x="260" y="90" width="100" height="30" as="geometry" />
        </mxCell>
        <mxCell id="OVqc9PXpgNsdq9rnyQdo-5" value="" style="endArrow=classic;html=1;rounded=1;exitX=0;exitY=0.5;exitDx=0;exitDy=0;entryX=0.5;entryY=0;entryDx=0;entryDy=0;curved=0;" parent="1" source="OVqc9PXpgNsdq9rnyQdo-1" target="shUx7FzOw33gI_u7dY2l-43" edge="1">
          <mxGeometry width="50" height="50" relative="1" as="geometry">
            <mxPoint x="400" y="360" as="sourcePoint" />
            <mxPoint x="450" y="310" as="targetPoint" />
            <Array as="points">
              <mxPoint x="240" y="100" />
            </Array>
          </mxGeometry>
        </mxCell>
        <mxCell id="knx08vlb1ocGrsRDQPjy-1" style="edgeStyle=orthogonalEdgeStyle;rounded=0;orthogonalLoop=1;jettySize=auto;html=1;exitX=0.5;exitY=1;exitDx=0;exitDy=0;" edge="1" parent="1" source="shUx7FzOw33gI_u7dY2l-1" target="shUx7FzOw33gI_u7dY2l-1">
          <mxGeometry relative="1" as="geometry" />
        </mxCell>
        <mxCell id="knx08vlb1ocGrsRDQPjy-2" style="edgeStyle=orthogonalEdgeStyle;rounded=0;orthogonalLoop=1;jettySize=auto;html=1;exitX=0.5;exitY=1;exitDx=0;exitDy=0;" edge="1" parent="1" source="shUx7FzOw33gI_u7dY2l-1" target="shUx7FzOw33gI_u7dY2l-1">
          <mxGeometry relative="1" as="geometry" />
        </mxCell>
      </root>
    </mxGraphModel>
  </diagram>
</mxfile>
